# xmcd CD database file
#
# Track frame offsets:
#	183
#	19505
#	40863
#	61083
#	81053
#	105420
#	132770
#
# Disc length: 2104 seconds
#
# Revision: 0
# Processed by: cddbd v1.5.1PL0 Copyright (c) Steve Scherf et al.
# Submitted via: CDex 1.51
#
DISCID=46083607
DTITLE=Duke Ellington and John Coltrane - Duke Ellington and John Coltrane
DYEAR=1962
DGENRE=Jazz
TTITLE0=In a Sentimental Mood
TTITLE1=Take the Coltrane
TTITLE2=Big Nick
TTITLE3=Stevie
TTITLE4=My Litle Brown Book
TTITLE5=Angelica
TTITLE6=The Feeling of Jazz
EXTD=YEAR: 1962
EXTT0=
EXTT1=
EXTT2=
EXTT3=
EXTT4=
EXTT5=
EXTT6=
PLAYORDER=
